REM DIRINDEX 1\2,1\3,1\4,1\5
REM DIRNAME folder01,folder02,folder03,folder04,folder05
TITLE ""
FILE "CD2Track03.mp3" MP3
  TRACK 01 AUDIO
    TITLE "0:"
    INDEX 01 00:00:00
  TRACK 02 AUDIO
    TITLE "3:cjc100_1097"
    INDEX 01 00:00:33
  TRACK 03 AUDIO
    TITLE "3:cjc100_1098"
    INDEX 01 00:01:64
  TRACK 04 AUDIO
    TITLE "3:cjc100_1099"
    INDEX 01 00:03:53
  TRACK 05 AUDIO
    TITLE "0:"
    INDEX 01 00:05:12
  TRACK 06 AUDIO
    TITLE "3:cjc100_1100"
    INDEX 01 00:05:61
  TRACK 07 AUDIO
    TITLE "3:cjc100_1101"
    INDEX 01 00:07:31
  TRACK 08 AUDIO
    TITLE "3:cjc100_1102"
    INDEX 01 00:08:42
  TRACK 09 AUDIO
    TITLE "0:"
    INDEX 01 00:10:08
  TRACK 10 AUDIO
    TITLE "3:cjc100_1103"
    INDEX 01 00:10:53
  TRACK 11 AUDIO
    TITLE "3:cjc100_1104"
    INDEX 01 00:12:18
  TRACK 12 AUDIO
    TITLE "3:cjc100_1105"
    INDEX 01 00:14:56
  TRACK 13 AUDIO
    TITLE "0:"
    INDEX 01 00:16:16
  TRACK 14 AUDIO
    TITLE "3:cjc100_1106"
    INDEX 01 00:16:63
  TRACK 15 AUDIO
    TITLE "3:cjc100_1107"
    INDEX 01 00:18:27
  TRACK 16 AUDIO
    TITLE "3:cjc100_1108"
    INDEX 01 00:19:58
  TRACK 17 AUDIO
    TITLE "0:"
    INDEX 01 00:21:13
  TRACK 18 AUDIO
    TITLE "3:cjc100_1109"
    INDEX 01 00:21:58
  TRACK 19 AUDIO
    TITLE "3:cjc100_1110"
    INDEX 01 00:23:44
  TRACK 20 AUDIO
    TITLE "3:cjc100_1111"
    INDEX 01 00:25:39
  TRACK 21 AUDIO
    TITLE "0:"
    INDEX 01 00:27:24
  TRACK 22 AUDIO
    TITLE "3:cjc100_1112"
    INDEX 01 00:27:65
  TRACK 23 AUDIO
    TITLE "3:cjc100_1113"
    INDEX 01 00:29:34
  TRACK 24 AUDIO
    TITLE "3:cjc100_1114"
    INDEX 01 00:31:00
  TRACK 25 AUDIO
    TITLE "0:"
    INDEX 01 00:32:33
  TRACK 26 AUDIO
    TITLE "3:cjc100_1115"
    INDEX 01 00:33:05
  TRACK 27 AUDIO
    TITLE "3:cjc100_1116"
    INDEX 01 00:34:40
  TRACK 28 AUDIO
    TITLE "3:cjc100_1117"
    INDEX 01 00:37:12
  TRACK 29 AUDIO
    TITLE "0:"
    INDEX 01 00:38:61
  TRACK 30 AUDIO
    TITLE "3:cjc100_1118"
    INDEX 01 00:39:23
  TRACK 31 AUDIO
    TITLE "3:cjc100_1119"
    INDEX 01 00:41:04
  TRACK 32 AUDIO
    TITLE "3:cjc100_1120"
    INDEX 01 00:42:47
  TRACK 33 AUDIO
    TITLE "0:"
    INDEX 01 00:44:12
  TRACK 34 AUDIO
    TITLE "3:cjc100_1121"
    INDEX 01 00:44:58
  TRACK 35 AUDIO
    TITLE "3:cjc100_1122"
    INDEX 01 00:46:19
  TRACK 36 AUDIO
    TITLE "3:cjc100_1123"
    INDEX 01 00:47:72
  TRACK 37 AUDIO
    TITLE "0:"
    INDEX 01 00:49:33
  TRACK 38 AUDIO
    TITLE "3:cjc100_1124"
    INDEX 01 00:49:69
  TRACK 39 AUDIO
    TITLE "3:cjc100_1125"
    INDEX 01 00:51:52
  TRACK 40 AUDIO
    TITLE "3:cjc100_1126"
    INDEX 01 00:53:21
  TRACK 41 AUDIO
    TITLE "0:"
    INDEX 01 00:54:70
  TRACK 42 AUDIO
    TITLE "3:cjc100_1127"
    INDEX 01 00:55:36
  TRACK 43 AUDIO
    TITLE "3:cjc100_1128"
    INDEX 01 00:57:03
  TRACK 44 AUDIO
    TITLE "3:cjc100_1129"
    INDEX 01 00:59:32
  TRACK 45 AUDIO
    TITLE "0:"
    INDEX 01 01:00:70
  TRACK 46 AUDIO
    TITLE "3:cjc100_1130"
    INDEX 01 01:01:40
  TRACK 47 AUDIO
    TITLE "3:cjc100_1131"
    INDEX 01 01:03:22
  TRACK 48 AUDIO
    TITLE "3:cjc100_1132"
    INDEX 01 01:05:24
  TRACK 49 AUDIO
    TITLE "0:"
    INDEX 01 01:07:00
  TRACK 50 AUDIO
    TITLE "3:cjc100_1133"
    INDEX 01 01:07:45
  TRACK 51 AUDIO
    TITLE "3:cjc100_1134"
    INDEX 01 01:09:16
  TRACK 52 AUDIO
    TITLE "3:cjc100_1135"
    INDEX 01 01:10:55
  TRACK 53 AUDIO
    TITLE "0:"
    INDEX 01 01:12:11
  TRACK 54 AUDIO
    TITLE "3:cjc100_1136"
    INDEX 01 01:12:64
  TRACK 55 AUDIO
    TITLE "3:cjc100_1137"
    INDEX 01 01:14:12
  TRACK 56 AUDIO
    TITLE "3:cjc100_1138"
    INDEX 01 01:15:44
  TRACK 57 AUDIO
    TITLE "0:"
    INDEX 01 01:16:69
  TRACK 58 AUDIO
    TITLE "3:cjc100_1139"
    INDEX 01 01:17:47
  TRACK 59 AUDIO
    TITLE "3:cjc100_1140"
    INDEX 01 01:18:56
  TRACK 60 AUDIO
    TITLE "3:cjc100_1141"
    INDEX 01 01:22:21
  TRACK 61 AUDIO
    TITLE "0:"
    INDEX 01 01:23:44
  TRACK 62 AUDIO
    TITLE "3:cjc100_1142"
    INDEX 01 01:24:16
  TRACK 63 AUDIO
    TITLE "3:cjc100_1143"
    INDEX 01 01:25:53
  TRACK 64 AUDIO
    TITLE "3:cjc100_1144"
    INDEX 01 01:27:38
  TRACK 65 AUDIO
    TITLE "0:"
    INDEX 01 01:29:09
  TRACK 66 AUDIO
    TITLE "3:cjc100_1145"
    INDEX 01 01:29:56
  TRACK 67 AUDIO
    TITLE "3:cjc100_1146"
    INDEX 01 01:31:24
  TRACK 68 AUDIO
    TITLE "3:cjc100_1147"
    INDEX 01 01:33:01
  TRACK 69 AUDIO
    TITLE "0:"
    INDEX 01 01:34:42
  TRACK 70 AUDIO
    TITLE "3:cjc100_1148"
    INDEX 01 01:35:08
  TRACK 71 AUDIO
    TITLE "3:cjc100_1149"
    INDEX 01 01:36:48
  TRACK 72 AUDIO
    TITLE "3:cjc100_1150"
    INDEX 01 01:38:08
  TRACK 73 AUDIO
    TITLE "0:"
    INDEX 01 01:39:51
  TRACK 74 AUDIO
    TITLE "3:cjc100_1151"
    INDEX 01 01:40:23
  TRACK 75 AUDIO
    TITLE "3:cjc100_1152"
    INDEX 01 01:41:71
  TRACK 76 AUDIO
    TITLE "3:cjc100_1153"
    INDEX 01 01:44:15
  TRACK 77 AUDIO
    TITLE "0:"
    INDEX 01 01:45:57
  TRACK 78 AUDIO
    TITLE "3:cjc100_1154"
    INDEX 01 01:46:23
  TRACK 79 AUDIO
    TITLE "3:cjc100_1155"
    INDEX 01 01:47:74
  TRACK 80 AUDIO
    TITLE "3:cjc100_1156"
    INDEX 01 01:49:47
  TRACK 81 AUDIO
    TITLE "0:"
    INDEX 01 01:51:03
  TRACK 82 AUDIO
    TITLE "3:cjc100_1157"
    INDEX 01 01:51:54
  TRACK 83 AUDIO
    TITLE "3:cjc100_1158"
    INDEX 01 01:53:23
  TRACK 84 AUDIO
    TITLE "3:cjc100_1159"
    INDEX 01 01:54:56
  TRACK 85 AUDIO
    TITLE "0:"
    INDEX 01 01:56:14
  TRACK 86 AUDIO
    TITLE "3:cjc100_1160"
    INDEX 01 01:56:59
  TRACK 87 AUDIO
    TITLE "3:cjc100_1161"
    INDEX 01 01:57:72
  TRACK 88 AUDIO
    TITLE "3:cjc100_1162"
    INDEX 01 02:00:10
  TRACK 89 AUDIO
    TITLE "0:"
    INDEX 01 02:01:27
  TRACK 90 AUDIO
    TITLE "3:cjc100_1163"
    INDEX 01 02:02:03
  TRACK 91 AUDIO
    TITLE "3:cjc100_1164"
    INDEX 01 02:03:55
  TRACK 92 AUDIO
    TITLE "3:cjc100_1165"
    INDEX 01 02:05:44
  TRACK 93 AUDIO
    TITLE "0:"
    INDEX 01 02:07:14
  TRACK 94 AUDIO
    TITLE "3:cjc100_1166"
    INDEX 01 02:07:65
  TRACK 95 AUDIO
    TITLE "3:cjc100_1167"
    INDEX 01 02:09:30
  TRACK 96 AUDIO
    TITLE "3:cjc100_1168"
    INDEX 01 02:11:27
  TRACK 97 AUDIO
    TITLE "0:"
    INDEX 01 02:12:74
  TRACK 98 AUDIO
    TITLE "3:cjc100_1169"
    INDEX 01 02:13:50
  TRACK 99 AUDIO
    TITLE "3:cjc100_1170"
    INDEX 01 02:15:19
  TRACK 100 AUDIO
    TITLE "3:cjc100_1171"
    INDEX 01 02:17:02
  TRACK 101 AUDIO
    TITLE "0:"
    INDEX 01 02:18:31
  TRACK 102 AUDIO
    TITLE "3:cjc100_1172"
    INDEX 01 02:19:15
  TRACK 103 AUDIO
    TITLE "3:cjc100_1173"
    INDEX 01 02:20:38
  TRACK 104 AUDIO
    TITLE "3:cjc100_1174"
    INDEX 01 02:22:04
  TRACK 105 AUDIO
    TITLE "0:"
    INDEX 01 02:23:42
  TRACK 106 AUDIO
    TITLE "3:cjc100_1175"
    INDEX 01 02:24:06
  TRACK 107 AUDIO
    TITLE "3:cjc100_1176"
    INDEX 01 02:25:37
  TRACK 108 AUDIO
    TITLE "3:cjc100_1177"
    INDEX 01 02:26:66
  TRACK 109 AUDIO
    TITLE "0:"
    INDEX 01 02:28:16
  TRACK 110 AUDIO
    TITLE "3:cjc100_1178"
    INDEX 01 02:28:59
  TRACK 111 AUDIO
    TITLE "3:cjc100_1179"
    INDEX 01 02:29:72
  TRACK 112 AUDIO
    TITLE "3:cjc100_1180"
    INDEX 01 02:31:57
  TRACK 113 AUDIO
    TITLE "0:"
    INDEX 01 02:33:07
  TRACK 114 AUDIO
    TITLE "3:cjc100_1181"
    INDEX 01 02:33:50
  TRACK 115 AUDIO
    TITLE "3:cjc100_1182"
    INDEX 01 02:35:28
  TRACK 116 AUDIO
    TITLE "3:cjc100_1183"
    INDEX 01 02:36:72
  TRACK 117 AUDIO
    TITLE "0:"
    INDEX 01 02:38:38
  TRACK 118 AUDIO
    TITLE "3:cjc100_1184"
    INDEX 01 02:39:04
  TRACK 119 AUDIO
    TITLE "3:cjc100_1185"
    INDEX 01 02:40:52
  TRACK 120 AUDIO
    TITLE "3:cjc100_1186"
    INDEX 01 02:43:08
  TRACK 121 AUDIO
    TITLE "0:"
    INDEX 01 02:44:44
  TRACK 122 AUDIO
    TITLE "3:cjc100_1187"
    INDEX 01 02:45:12
  TRACK 123 AUDIO
    TITLE "3:cjc100_1188"
    INDEX 01 02:46:39
  TRACK 124 AUDIO
    TITLE "3:cjc100_1189"
    INDEX 01 02:50:08
  TRACK 125 AUDIO
    TITLE "0:"
    INDEX 01 02:51:39
  TRACK 126 AUDIO
    TITLE "3:cjc100_1190"
    INDEX 01 02:52:11
  TRACK 127 AUDIO
    TITLE "3:cjc100_1191"
    INDEX 01 02:53:37
  TRACK 128 AUDIO
    TITLE "3:cjc100_1192"
    INDEX 01 02:54:68
  TRACK 129 AUDIO
    TITLE "0:"
    INDEX 01 02:56:24
  TRACK 130 AUDIO
    TITLE "3:cjc100_1193"
    INDEX 01 02:56:63
  TRACK 131 AUDIO
    TITLE "3:cjc100_1194"
    INDEX 01 02:58:27
  TRACK 132 AUDIO
    TITLE "3:cjc100_1195"
    INDEX 01 02:59:58
  TRACK 133 AUDIO
    TITLE "0:"
    INDEX 01 03:01:23
  TRACK 134 AUDIO
    TITLE "3:cjc100_1196"
    INDEX 01 03:01:72
  TRACK 135 AUDIO
    TITLE "3:cjc100_1197"
    INDEX 01 03:03:28
  TRACK 136 AUDIO
    TITLE "3:cjc100_1198"
    INDEX 01 03:05:03
  TRACK 137 AUDIO
    TITLE "0:"
    INDEX 01 03:06:24
